<?xml version="1.0" standalone="no"?>
<!DOCTYPE svg PUBLIC "-//W3C//DTD SVG 20010904//EN"
 "http://www.w3.org/TR/2001/REC-SVG-20010904/DTD/svg10.dtd">
<svg version="1.0" xmlns="http://www.w3.org/2000/svg"
 width="1024.000000pt" height="1024.000000pt" viewBox="0 0 1024.000000 1024.000000"
 preserveAspectRatio="xMidYMid meet">
<metadata>
Created by potrace 1.14, written by Peter Selinger 2001-2017
</metadata>
<g transform="translate(0.000000,1024.000000) scale(0.100000,-0.100000)"
fill="#000000" stroke="none">
<path d="M2599 10106 c-2 -2 -44 -6 -94 -10 -538 -37 -959 -276 -1204 -685
-95 -158 -151 -320 -186 -541 -17 -110 -20 -563 -20 -3325 1 -2774 5 -3702 19
-3762 2 -11 8 -43 11 -70 25 -174 104 -411 192 -571 177 -326 457 -606 788
-787 125 -68 335 -149 472 -181 223 -52 -15 -48 3358 -50 1716 -1 3144 1 3173
3 l52 5 -2 4256 -3 4256 -600 1 -600 0 -1 723 c-1 398 -5 726 -9 730 -6 7
-5339 14 -5346 8z m3903 -1989 c64 -25 104 -68 118 -129 13 -54 6 -127 -16
-170 -19 -37 -88 -75 -154 -85 -30 -4 -725 -8 -1545 -7 -1375 0 -1494 2 -1541
18 -89 29 -134 100 -129 201 3 62 24 106 69 140 71 54 38 53 1656 51 1418 -1
1497 -2 1542 -19z m2214 10 c5 -4 8 -1684 9 -3733 l0 -3724 -3040 3 -3040 3
-135 26 c-74 14 -147 31 -163 37 -15 6 -38 13 -52 15 -13 3 -62 21 -107 42
-267 119 -446 330 -497 585 -6 30 -13 68 -17 84 -13 66 -11 305 3 396 45 281
187 501 410 632 175 102 494 205 719 232 33 4 68 9 79 12 52 10 789 15 2830
18 1221 1 2222 3 2225 4 3 0 5 1208 5 2684 0 1475 3 2684 6 2687 12 9 757 6
765 -3z m-2220 -1092 c95 -29 140 -98 132 -205 -7 -104 -72 -167 -189 -184
-58 -9 -2959 -9 -3014 -1 -42 7 -109 35 -136 57 -51 41 -70 169 -37 239 23 48
49 69 110 90 50 17 132 18 1568 18 1321 1 1522 -1 1566 -14z m-48 -1079 c122
-15 186 -85 181 -200 -4 -93 -50 -152 -140 -177 -34 -9 -388 -12 -1529 -13
-817 -1 -1511 2 -1543 6 -129 17 -188 84 -182 208 5 102 63 161 175 177 64 10
2962 9 3038 -1z"/>
<path d="M2760 1944 c-93 -64 -169 -146 -165 -179 8 -65 52 -131 139 -207 l50
-43 2593 0 2594 0 5 20 c3 12 6 86 7 165 3 201 -11 228 -133 257 -45 10 -528
13 -2555 12 l-2500 -1 -35 -24z"/>
</g>
</svg>
